# xmcd CD database file
#
# Track frame offsets:
#	150
#	5904
#	28006
#	48034
#	71871
#	100548
#	124329
#	162617
#	187638
#	200045
#
# Disc length: 3044 seconds
#
# Revision: 1
# Processed by: cddbd v1.5.2PL0 Copyright (c) Steve Scherf et al.
# Submitted via: CDex 1.70beta2
#
DISCID=870be20a
DTITLE=Vigilante - Edge Of Time
DYEAR=1999
DGENRE=J-Metal
TTITLE0=Judgement Day
TTITLE1=Tease Of Influence
TTITLE2=Prisoner Of Fate
TTITLE3=Blame And Praise
TTITLE4=Kingdom Fall (Suicidal Wind)
TTITLE5=Under The Strain
TTITLE6=The Silent Majority
TTITLE7=Burn In Agony
TTITLE8=The Edge Of Time
TTITLE9=The Wondering Traveller
EXTD=YEAR: 1999
EXTT0=
EXTT1=
EXTT2=
EXTT3=
EXTT4=
EXTT5=
EXTT6=
EXTT7=
EXTT8=
EXTT9=
PLAYORDER=
